<svg width="30" height="22" viewBox="0 0 30 22" fill="none" xmlns="http://www.w3.org/2000/svg">
<path d="M27 10H26H16H15H14H4H3C1.3 10 0 11.3 0 13V17C0 17.5 0.5 18 1 18H2H7H8H22H23H28H29C29.5 18 30 17.5 30 17V13C30 11.3 28.7 10 27 10Z" fill="black"/>
<path d="M6.99609 5H10.9961C13.1961 5 14.9961 6.8 14.9961 9C14.9961 6.8 16.7961 5 18.9961 5H22.9961C23.2961 5 23.6961 5 23.9961 5.1C24.7961 5.3 25.4961 5.7 25.9961 6.3V3C25.9961 1.3 24.6961 0 22.9961 0H6.99609C5.29609 0 3.99609 1.3 3.99609 3V6.4C4.49609 5.8 5.19609 5.4 5.99609 5.2C6.29609 5 6.69609 5 6.99609 5Z" fill="black"/>
<path d="M4 19H2V21C2 21.5 2.5 22 3 22H6C6.5 22 7 21.5 7 21V19H5H4Z" fill="black"/>
<path d="M25 19H23V21C23 21.5 23.5 22 24 22H27C27.5 22 28 21.5 28 21V19H26H25Z" fill="black"/>
<path d="M6.99609 9H11.9961H13.9961C13.9961 7.3 12.6961 6 10.9961 6H6.99609C6.69609 6 6.29609 6.1 5.99609 6.2C4.79609 6.6 3.99609 7.7 3.99609 9H5.99609H6.99609Z" fill="black"/>
<path d="M23 6H19C17.3 6 16 7.3 16 9H18H23H24H26C26 7.7 25.2 6.6 24 6.2C23.7 6.1 23.3 6 23 6Z" fill="black"/>
</svg>
