<svg width="84" height="66" viewBox="0 0 84 66" fill="none" xmlns="http://www.w3.org/2000/svg">
<path d="M73.1636 35.9981C71.2837 35.3834 69.2798 35.5377 67.5161 36.4317C63.8765 38.2774 62.4165 42.7403 64.2622 46.38C65.5659 48.9493 68.1743 50.4322 70.8755 50.4322C72.0005 50.4322 73.1411 50.1754 74.2105 49.6329C77.8501 47.7867 79.3091 43.3243 77.4634 39.6847C76.5698 37.922 75.0425 36.6124 73.1636 35.9981ZM73.5327 48.295C70.6294 49.7682 67.0718 48.6036 65.6001 45.7013C64.1284 42.7994 65.2925 39.2413 68.1939 37.7696C69.0337 37.3438 69.9419 37.1285 70.857 37.1285C71.4741 37.1285 72.0933 37.2266 72.6968 37.4239C74.1948 37.9137 75.4126 38.9576 76.1255 40.3634C77.5972 43.2652 76.4341 46.8233 73.5327 48.295Z" fill="black"/>
<path d="M69.2773 30.8766L53.8672 0.489866C53.6816 0.121214 53.2295 -0.0277117 52.8594 0.160277L46.9111 3.17688C46.7334 3.26672 46.5986 3.42346 46.5371 3.61291C46.4756 3.80188 46.4912 4.00744 46.5811 4.18518L47.1904 5.38586L45.1512 6.4201C41.0379 4.51471 36.6388 3.54114 32.0645 3.54114C14.8662 3.54114 0.875 17.5328 0.875 34.7311C0.875 41.9062 3.31653 48.518 7.40387 53.7937C7.43768 53.8574 7.48547 53.9101 7.53619 53.9619C13.2512 61.2354 22.118 65.921 32.0645 65.921C43.9412 65.921 54.7069 59.1885 59.968 48.6465C61.4542 51.5311 63.9647 53.6754 67.0518 54.6852C68.3057 55.0953 69.5928 55.2985 70.875 55.2985C72.7754 55.2985 74.6631 54.8512 76.4072 53.9664C79.3281 52.4855 81.4971 49.9557 82.5156 46.8429C83.5332 43.7306 83.2783 40.4078 81.7969 37.4869C79.457 32.8746 74.3789 30.2174 69.2773 30.8766ZM32.0645 5.04114C36.0154 5.04114 39.8295 5.80023 43.4268 7.29474L42.2959 7.86828C41.9258 8.05578 41.7783 8.50696 41.9658 8.87659L43.5088 11.9196C43.5986 12.0968 43.7559 12.2311 43.9443 12.2931C44.1357 12.3556 44.3408 12.3385 44.5166 12.2491L49.4121 9.76672L49.7197 10.3722L46.7676 11.8688C46.5898 11.9586 46.4551 12.1154 46.3936 12.3043C46.332 12.4938 46.3477 12.6993 46.4375 12.8771L47.9805 15.92C48.167 16.2877 48.6172 16.4391 48.9883 16.2496L51.9404 14.753L61.9922 34.5719C58.8964 37.8218 57.8494 42.5643 59.1954 46.7867C58.397 48.5811 57.432 50.265 56.3278 51.8314C53.8129 45.121 46.2968 40.0844 37.108 38.712C43.0148 36.6254 47.2656 31.0011 47.2656 24.3888C47.2656 16.007 40.4473 9.18811 32.0654 9.18811C23.6836 9.18811 16.8643 16.007 16.8643 24.3888C16.8643 31.0018 21.1166 36.6266 27.0246 38.7127C17.8514 40.0848 10.3381 45.1132 7.80463 51.8146C4.38965 46.9792 2.375 41.0878 2.375 34.7311C2.375 18.36 15.6934 5.04114 32.0645 5.04114ZM32.0654 38.09C24.5107 38.09 18.3643 31.9435 18.3643 24.3888C18.3643 16.8341 24.5107 10.6881 32.0654 10.6881C39.6201 10.6881 45.7656 16.8341 45.7656 24.3888C45.7656 31.9435 39.6201 38.09 32.0654 38.09ZM32.0645 64.421C22.7056 64.421 14.3498 60.0638 8.90411 53.2764C11.1967 45.4633 20.8458 39.8263 32.0664 39.8263C43.304 39.8263 52.9573 45.4697 55.2261 53.2883C49.6757 60.2126 41.2185 64.421 32.0645 64.421ZM81.0898 46.3766C80.1963 49.1085 78.293 51.3287 75.7295 52.6285C73.167 53.9279 70.251 54.1534 67.5186 53.2594C64.7871 52.3663 62.5664 50.4625 61.2666 47.899C59.1367 43.7003 60.0283 38.4987 63.4346 35.2491C63.7021 34.9943 63.7373 34.5856 63.5264 34.2819L52.9395 13.4054C52.7529 13.0372 52.3027 12.8864 51.9316 13.0758L48.9795 14.5724L48.1143 12.8673L51.0664 11.3707C51.2441 11.2809 51.3789 11.1241 51.4404 10.9352C51.502 10.7457 51.4863 10.5402 51.3965 10.3624L50.4111 8.41907C50.3213 8.24182 50.1641 8.10754 49.9756 8.04553C49.7852 7.98303 49.5791 8.00012 49.4033 8.08948L44.5078 10.5719L43.6426 8.86682L48.5371 6.3844C48.9072 6.1969 49.0547 5.74573 48.8672 5.3761L48.2578 4.17541L52.8682 1.83752L68.1201 31.9117C68.123 31.9205 68.126 31.9298 68.1289 31.9391C68.2461 32.2936 68.6123 32.5031 68.9727 32.441C73.6104 31.6129 78.3301 33.9669 80.459 38.1656C81.7588 40.7291 81.9824 43.6451 81.0898 46.3766Z" fill="black"/>
</svg>
