<svg xmlns="http://www.w3.org/2000/svg" xmlns:xlink="http://www.w3.org/1999/xlink" version="1.1" x="0px" y="0px" viewBox="0 0 100 125" style="enable-background:new 0 0 100 100;" xml:space="preserve"><style type="text/css">
	.st0{fill:none;stroke:#000000;stroke-width:1.5;stroke-linecap:round;stroke-linejoin:round;stroke-miterlimit:10;}
	.st1{fill:none;stroke:#000000;stroke-width:1.5;stroke-miterlimit:10;}
</style><g><g><path d="M81.1630859,52.9980469c-1.8798828-0.6147461-3.8837891-0.4604492-5.6474609,0.4335938    c-3.6396484,1.8457031-5.0996094,6.3085938-3.2539063,9.9482422c1.3037109,2.5693359,3.9121094,4.0522461,6.6132813,4.0522461    c1.125,0,2.265625-0.2568359,3.3349609-0.7993164c3.6396484-1.8461914,5.0986328-6.3085938,3.2529297-9.9482422    C84.5693359,54.921875,83.0419922,53.6123047,81.1630859,52.9980469z M81.5322266,65.2949219    c-2.9033203,1.4731445-6.4609375,0.3085938-7.9326172-2.59375c-1.4716797-2.9018555-0.3076172-6.4599609,2.59375-7.9316406    c0.8398438-0.4257813,1.7480469-0.6411133,2.6630859-0.6411133c0.6171875,0,1.2363281,0.0981445,1.8398438,0.2954102    c1.4980469,0.4897461,2.7158203,1.5336914,3.4287109,2.9394531    C85.5966797,60.2651367,84.4335938,63.8232422,81.5322266,65.2949219z"/><path d="M77.2773438,47.8764648L61.8671875,17.4897461c-0.1855469-0.3686523-0.6376953-0.5175781-1.0078125-0.3295898    l-5.9482422,3.0166016c-0.1777344,0.0898438-0.3125,0.246582-0.3740234,0.4360352    c-0.0615234,0.1889648-0.0458984,0.3945313,0.0439453,0.5722656l0.609375,1.2006836l-2.0391846,1.0342407    c-4.1133423-1.9053955-8.5124512-2.8789673-13.086792-2.8789673C22.8662109,20.5410156,8.875,34.5327148,8.875,51.730957    c0,7.1751099,2.4415283,13.7869263,6.5288696,19.0626221c0.0338135,0.0637207,0.081604,0.116394,0.1323242,0.1682129    c5.7149658,7.2734985,14.5818481,11.9591064,24.5282593,11.9591064c11.876709,0,22.6424561-6.7325439,27.9035034-17.2744751    c1.4862671,2.8845215,3.9967651,5.0288086,7.0838013,6.0386353c1.2539063,0.4101563,2.5410156,0.6132813,3.8232422,0.6132813    c1.9003906,0,3.7880859-0.4472656,5.5322266-1.3320313c2.9208984-1.480957,5.0898438-4.0107422,6.1083984-7.1235352    c1.0175781-3.1123047,0.7626953-6.4350586-0.71875-9.355957C87.4570313,49.8745117,82.3789063,47.2172852,77.2773438,47.8764648z     M40.0644531,22.0410156c3.9509888,0,7.7650146,0.7590942,11.3623047,2.2536011l-1.1308594,0.5735474    c-0.3701172,0.1875-0.5175781,0.6386719-0.3300781,1.0083008l1.5429688,3.0429688    c0.0898438,0.1772461,0.2470703,0.3115234,0.4355469,0.3735352c0.1914063,0.0625,0.3964844,0.0454102,0.5722656-0.0439453    l4.8955078-2.4824219l0.3076172,0.6054688l-2.9521484,1.496582c-0.1777344,0.0898438-0.3125,0.246582-0.3740234,0.4355469    c-0.0615234,0.1894531-0.0458984,0.3950195,0.0439453,0.5727539l1.5429688,3.0429688    c0.1865234,0.3676758,0.6367188,0.519043,1.0078125,0.3295898l2.9521484-1.496582l10.0517578,19.8188477    c-3.0958252,3.2498779-4.1427612,7.9923706-2.796814,12.2147827c-0.7983398,1.7943726-1.7633667,3.4783325-2.8675537,5.0446777    C61.8129272,62.1209106,54.296814,57.0842285,45.1080322,55.711853    c5.9067993-2.0866089,10.1575928-7.7108765,10.1575928-14.3231812c0-8.3818359-6.8183594-15.2006836-15.2001953-15.2006836    s-15.2011719,6.8188477-15.2011719,15.2006836c0,6.6130371,4.2523193,12.237854,10.1603394,14.3239136    c-9.1732178,1.3720703-16.6864624,6.4004517-19.2199707,13.1018677C12.3896484,63.979126,10.375,58.0876465,10.375,51.730957    C10.375,35.3598633,23.6933594,22.0410156,40.0644531,22.0410156z M40.0654297,55.0898438    c-7.5546875,0-13.7011719-6.1464844-13.7011719-13.7011719s6.1464844-13.7006836,13.7011719-13.7006836    S53.765625,33.8339844,53.765625,41.3886719S47.6201172,55.0898438,40.0654297,55.0898438z M40.0644531,81.4208984    c-9.3588867,0-17.7146606-4.3572388-23.1603394-11.1445923c2.2926025-7.8131104,11.9417114-13.4501343,23.1622925-13.4501343    c11.2376099,0,20.8909302,5.6434326,23.159668,13.4620361C57.6757202,77.2125244,49.2185059,81.4208984,40.0644531,81.4208984z     M89.0898438,63.3764648c-0.8935547,2.7319336-2.796875,4.9521484-5.3603516,6.2519531    c-2.5625,1.2993164-5.4785156,1.5249023-8.2109375,0.6308594c-2.7314453-0.8930664-4.9521484-2.796875-6.2519531-5.3603516    c-2.1298828-4.1987305-1.2382813-9.4003906,2.1679688-12.6499023c0.2675781-0.2548828,0.3027344-0.6635742,0.0917969-0.9672852    L60.9394531,30.4052734c-0.1865234-0.3681641-0.6367188-0.519043-1.0078125-0.3295898l-2.9521484,1.496582l-0.8652344-1.7050781    l2.9521484-1.496582c0.1777344-0.0898438,0.3125-0.246582,0.3740234-0.4355469    c0.0615234-0.1894531,0.0458984-0.3950195-0.0439453-0.5727539l-0.9853516-1.9433594    c-0.0898438-0.1772461-0.2470703-0.3115234-0.4355469-0.3735352c-0.1904297-0.0625-0.3964844-0.0454102-0.5722656,0.0439453    l-4.8955078,2.4824219l-0.8652344-1.7050781l4.8945313-2.4824219c0.3701172-0.1875,0.5175781-0.6386719,0.3300781-1.0083008    l-0.609375-1.2006836l4.6103516-2.3378906l15.2519531,30.0742188c0.0029297,0.0087891,0.0058594,0.0180664,0.0087891,0.0273438    c0.1171875,0.3544922,0.4833984,0.5639648,0.84375,0.5019531c4.6376953-0.828125,9.3574219,1.5258789,11.4863281,5.7246094    C89.7587891,57.7290039,89.9824219,60.6450195,89.0898438,63.3764648z"/></g></g><text x="0" y="115" fill="#000000" font-size="5px" font-weight="bold" font-family="'Helvetica Neue', Helvetica, Arial-Unicode, Arial, Sans-serif">Created by See Link</text><text x="0" y="120" fill="#000000" font-size="5px" font-weight="bold" font-family="'Helvetica Neue', Helvetica, Arial-Unicode, Arial, Sans-serif">from the Noun Project</text></svg>